<?xml version="1.0" encoding="UTF-8" standalone="no"?>
<!-- Created with Inkscape (http://www.inkscape.org/) -->

<svg
   version="1.1"
   id="svg1"
   width="218"
   height="218"
   viewBox="0 0 218 218"
   sodipodi:docname="logo-only.jpg"
   xml:space="preserve"
   inkscape:export-filename="transparent-logo.png"
   inkscape:export-xdpi="96"
   inkscape:export-ydpi="96"
   xmlns:inkscape="http://www.inkscape.org/namespaces/inkscape"
   xmlns:sodipodi="http://sodipodi.sourceforge.net/DTD/sodipodi-0.dtd"
   xmlns="http://www.w3.org/2000/svg"
   xmlns:svg="http://www.w3.org/2000/svg"><defs
     id="defs1" /><sodipodi:namedview
     id="namedview1"
     pagecolor="#505050"
     bordercolor="#eeeeee"
     borderopacity="1"
     inkscape:showpageshadow="0"
     inkscape:pageopacity="0"
     inkscape:pagecheckerboard="0"
     inkscape:deskcolor="#505050"
     inkscape:export-bgcolor="#ffffff00" /><g
     inkscape:groupmode="layer"
     inkscape:label="Image"
     id="g1"><path
       style="fill:#000000;fill-opacity:1"
       d="m 91.199583,206.18378 -6.952436,-1.03161 -2.399011,-1.88706 -2.399012,-1.88707 -3.648552,-0.65624 -3.648553,-0.65625 -4,-3.29033 c -2.2,-1.80969 -6.558744,-5.6887 -9.686098,-8.62004 -3.127354,-2.93133 -8.189854,-8.19897 -11.25,-11.70586 l -5.563902,-6.37616 v -2.20143 c 0,-1.21079 -1.185105,-5.09152 -2.633565,-8.62384 l -2.633566,-6.42241 -0.492183,-14 -0.492182,-14 1.666019,-6.5 c 0.916311,-3.575 3.10661,-9.62883 4.867333,-13.45295 l 3.201313,-6.95295 -0.305598,-1.80387 -0.305599,-1.803869 1.749923,-0.671508 c 0.962458,-0.36933 4.650018,-3.745763 8.19458,-7.503184 l 6.444656,-6.831676 6.978584,-4.639354 6.978584,-4.639353 7.377101,-2.864537 7.3771,-2.864537 6.018057,-0.629012 6.018054,-0.629011 1.68264,-1.230373 1.68263,-1.230373 -2.18694,-0.694108 -2.18694,-0.694108 -0.0316,-1.182613 -0.0316,-1.182612 -4.464462,-2.709078 -4.464464,-2.709078 -3.028561,-4.775546 c -1.665709,-2.62655 -3.48806,-6.481992 -4.049669,-8.567649 l -1.021107,-3.792103 1.002925,-5.42532 1.002925,-5.42532 2.553311,-4.044707 2.553312,-4.044707 5.652797,-3.753246 5.652793,-3.7532461 7.58671,0.019851 7.58671,0.019851 3.33558,1.8000873 c 1.83458,0.9900478 4.9442,3.4561148 6.91029,5.4801488 1.96608,2.024034 4.39268,5.480062 5.39245,7.680062 l 1.81775,4 0.0182,7 0.0182,7 -2.09822,3.5 c -1.15402,1.925 -3.28983,4.778712 -4.74626,6.341583 -1.45642,1.56287 -4.28004,3.681202 -6.27471,4.707403 -1.99466,1.026201 -3.89304,2.559989 -4.21861,3.408417 l -0.59195,1.542597 h -1.53139 -1.53138 v 0.980948 0.980948 l 2.25,0.446394 c 1.2375,0.245517 7.425,1.63991 13.75,3.09865 l 11.5,2.652256 4,2.33999 4,2.33999 7.89826,8.669098 c 4.34405,4.768003 9.77559,11.468664 12.07008,14.890357 l 4.17181,6.221257 2.92992,8.94006 2.92993,8.94005 -0.0228,14.5 -0.0228,14.5 -2.78496,8 -2.78496,8 -4.11788,7 -4.11787,7 -5.78318,5.68477 c -3.18075,3.12663 -8.38921,7.44046 -11.57436,9.58628 -3.18515,2.14583 -9.27028,5.56306 -13.52252,7.59384 l -7.73134,3.69232 -14.26866,0.41634 -14.268661,0.41635 z m 11.697187,-5.3583 0.47791,-2.5 h -2.77955 c -1.528743,0 -3.488756,-0.27215 -4.35558,-0.60478 l -1.576044,-0.60479 0.686215,-1.14521 0.686215,-1.14522 -1.639601,1.32899 -1.6396,1.32899 -1.802358,-1.04858 -1.802358,-1.04858 2,-0.0457 2,-0.0457 -1.5,-0.96938 -1.5,-0.96937 1,-0.01 c 0.55,-0.005 2.702955,0.46318 4.784345,1.04118 l 3.784345,1.05091 1.965651,-0.62388 1.96566,-0.62387 v -1.43262 -1.43261 h -1.53984 c -0.84691,0 -3.20941,-0.88979 -5.249999,-1.97731 -2.040589,-1.08752 -4.644218,-2.78363 -5.785841,-3.76913 -1.141624,-0.98551 -2.916478,-3.07505 -3.944121,-4.64343 l -1.868442,-2.85161 -1.322386,3.81963 c -0.727312,2.10079 -1.496609,4.7804 -1.709547,5.95468 l -0.387161,2.13506 3.403668,1.23079 3.403668,1.23078 v 1.43527 c 0,0.7894 -0.287891,1.43527 -0.639758,1.43527 -0.351866,0 -1.285237,-0.7875 -2.074157,-1.75 -0.78892,-0.9625 -1.149472,-1.1875 -0.801226,-0.5 l 0.633175,1.25 h -1.108677 c -0.609772,0 -2.391066,-0.66315 -3.958429,-1.47366 l -2.849752,-1.47367 -1.306758,1.57455 c -0.718716,0.866 -1.39459,2.17299 -1.501941,2.90442 l -0.195185,1.32988 1.311097,-0.50311 1.311097,-0.50312 3.164306,1.63633 c 1.740368,0.89998 6.393483,2.48276 10.340257,3.51729 3.946773,1.03453 8.135991,1.90575 9.309372,1.93603 l 2.13342,0.0551 z m 21.17024,-7.54646 6.62565,-2.04645 0.97176,0.60058 0.97176,0.60058 1.67081,-0.93504 1.67082,-0.93503 -2.29503,-0.72841 -2.29502,-0.72842 1.1876,-0.73397 1.18759,-0.73397 -1.95939,-5.15671 -1.95939,-5.1567 h 0.81989 c 0.45095,0 2.24722,1.80214 3.99173,4.00476 l 3.17182,4.00475 0.9122,-0.56377 0.91221,-0.56377 v 0.69877 c 0,0.38433 -0.7875,1.31199 -1.75,2.06147 l -1.75,1.3627 1.91404,-0.67239 1.91405,-0.6724 -0.82437,1.41994 -0.82437,1.41994 0.91032,-0.83333 c 0.50068,-0.45833 0.91033,-1.35833 0.91033,-2 v -1.16667 l 2.28165,-0.11498 c 1.2549,-0.0632 2.6049,-0.47244 3,-0.90933 l 0.71835,-0.79435 -2,0.66906 -2,0.66905 4.75,-4.26417 c 2.6125,-2.34529 4.75,-4.53437 4.75,-4.86462 0,-0.33026 -8.82808,-8.65326 -19.61796,-18.49556 l -19.61796,-17.8951 -2.63204,-0.11529 c -1.44762,-0.0634 -3.20419,-0.17591 -3.90348,-0.25 l -1.27144,-0.13471 -1.14086,-2.50392 -1.14087,-2.50393 -9.087695,-2.88656 c -4.998233,-1.5876 -16.850196,-5.62535 -26.337696,-8.97278 l -17.25,-6.08623 -0.01531,1.22671 -0.01531,1.22671 -0.73947,-1.16225 -0.73947,-1.16224 0.105824,6.66224 c 0.0582,3.66424 0.172856,7.39165 0.254783,8.28315 l 0.148959,1.62089 4.64343,-0.86749 c 2.553887,-0.47711 5.253887,-1.37412 6,-1.99333 l 1.35657,-1.12586 -0.03041,5.87245 -0.03041,5.87244 -1.019281,-1.75 -1.019281,-1.75 h -4.981695 -4.981695 l -0.619605,1.61467 -0.619606,1.61466 1.774177,7.63534 c 0.975797,4.19943 1.922031,9.37612 2.102742,11.50375 0.180711,2.12763 0.575277,4.11513 0.876814,4.41667 0.301536,0.30153 0.600067,-0.31425 0.663402,-1.36842 0.06334,-1.05417 0.07481,-2.81667 0.02549,-3.91667 l -0.08966,-2 0.55152,1.23104 0.551519,1.23103 3.869362,-1.974 c 2.128149,-1.0857 4.274343,-2.69766 4.769322,-3.58214 l 0.89996,-1.60814 2.23319,4.28447 2.23319,4.28447 -3.829524,3.27909 c -2.106238,1.8035 -4.197348,3.29598 -4.646911,3.31664 l -0.817388,0.0375 0.671255,2.25 0.671254,2.25 6.017407,6.14927 6.017407,6.14927 -0.579434,0.93754 -0.579433,0.93754 3.95816,2.11275 3.95816,2.11275 v -0.92388 c 0,-0.50813 -1.35,-1.62199 -3,-2.47524 -1.65,-0.85325 -3,-1.9898 -3,-2.52568 0,-0.53587 0.413298,-0.97432 0.91844,-0.97432 0.505143,0 1.855143,-1.51561 3,-3.36803 l 2.08156,-3.36804 v -2.28695 -2.28695 l 1.75,1.50288 c 0.9625,0.82659 2.263882,1.79284 2.89196,2.14723 l 1.14196,0.64435 -0.918947,-4.08993 -0.918947,-4.08993 0.66219,-3.65232 c 0.364204,-2.00877 1.55298,-5.45231 2.641725,-7.65231 1.088744,-2.2 3.165402,-5.03618 4.614797,-6.30263 1.449394,-1.26645 4.435262,-3.16907 6.635262,-4.22804 l 3.999997,-1.9254 4.72976,-0.022 4.72977,-0.022 4.01375,1.60599 c 2.20756,0.88329 3.82136,1.91727 3.58622,2.29774 -0.23515,0.38047 0.0352,1.34528 0.60081,2.14402 l 1.02835,1.45225 -0.56294,-1.75 -0.56295,-1.75 h 0.76861 c 0.42274,0 1.27345,0.50484 1.89047,1.12186 l 1.12186,1.12185 -0.46737,1.21793 -0.46736,1.21793 1.70923,1.41022 1.70923,1.41021 -1.21658,-2.5 -1.21659,-2.5 2.42717,2.85878 c 1.33494,1.57233 2.93373,4.54954 3.55286,6.61602 0.61914,2.06648 1.1257,5.85699 1.1257,8.42334 v 4.6661 l -1.55068,3.71788 c -0.85288,2.04484 -2.99038,5.21981 -4.75,7.05551 -1.75963,1.8357 -4.86889,4.1982 -6.90948,5.25 -2.04059,1.0518 -4.40309,1.91237 -5.25,1.91237 -0.84691,0 -1.53984,0.36 -1.53984,0.8 0,0.44 0.54,1.34 1.2,2 l 1.2,1.2 h 2.69466 c 1.48207,0 5.67621,-0.9209 9.32033,-2.04646 z m 22.07545,-0.96901 -0.54218,-0.87727 3.69292,-2.5094 c 2.0311,-1.38017 4.00233,-2.31818 4.38051,-2.08445 0.37817,0.23372 1.7655,-0.79868 3.08295,-2.29423 l 2.39536,-2.71918 -3,2.49051 -3,2.49051 3.39826,-3.69109 c 1.86905,-2.0301 3.83961,-3.60082 4.37902,-3.49051 l 0.98074,0.20058 0.22019,-2 c 0.1211,-1.1 1.86304,-4.40772 3.87099,-7.35049 2.00794,-2.94277 3.6508,-5.78182 3.6508,-6.30901 0,-0.52719 0.3375,-0.74995 0.75,-0.49501 l 0.75,0.46353 0.17616,-2.15451 c 0.0969,-1.18498 1.05897,-5.30451 2.13796,-9.15451 1.07899,-3.85 2.18287,-8.65119 2.45306,-10.66932 l 0.49125,-3.66932 -2.05572,0.39589 c -1.13065,0.21775 -2.36913,0.903 -2.75218,1.52279 -0.38305,0.61979 -0.95417,3.30288 -1.26915,5.96241 l -0.5727,4.83552 -3.20101,7.68918 -3.20102,7.68918 1.63972,0.91764 1.63972,0.91763 -1.60102,2.44346 -1.60102,2.44347 -1.6207,-0.90699 -1.62069,-0.90698 -5.37364,5.93806 -5.37364,5.93807 -1.64769,-0.27035 -1.64769,-0.27034 0.24199,1.22598 0.242,1.22599 -2.992,2.21207 -2.99199,2.21208 v 1.92035 1.92035 l 2.58379,-0.64849 2.58379,-0.64849 -0.7383,1.19459 -0.7383,1.19459 1.17082,-0.72361 1.17082,-0.7236 z m -40.89495,-6.13904 0.71353,-1.15451 -1.28424,0.79371 -1.28424,0.7937 0.43253,-1.2976 0.43253,-1.29761 2.30829,-0.35227 2.30828,-0.35227 -0.56741,1.47866 -0.56741,1.47865 0.84145,0.52005 c 0.46281,0.28603 2.24262,0.0316 3.95514,-0.56539 l 3.11369,-1.08543 -0.55076,-0.89114 -0.55075,-0.89113 1.34994,0.51802 1.34993,0.51802 2.36459,-2.51699 2.36458,-2.51698 1.24839,1.03607 1.24839,1.03607 0.43484,-0.79856 c 0.23916,-0.43921 0.7151,-1.58606 1.05764,-2.54856 l 0.62281,-1.75 h -0.96862 c -0.53273,0 -0.96861,0.675 -0.96861,1.5 v 1.5 h -1.10699 -1.10699 l 0.57561,-1.5 0.5756,-1.5 h -1.43723 -1.43723 l 0.61579,1.75 0.6158,1.75 -1.27997,-1.18278 -1.27996,-1.18278 0.58304,-1.51938 0.58304,-1.51938 2.04975,0.39474 2.04974,0.39475 0.0137,-1.19259 c 0.008,-0.65592 0.28675,-2.21177 0.62052,-3.45744 l 0.60686,-2.26486 -1.62051,0.62185 -1.62052,0.62185 v -1.10699 -1.10699 h 1.56336 1.56336 l -0.31336,-3.25 -0.31336,-3.25 -2.32568,0.32568 -2.32568,0.32568 2.19371,-2.19371 2.19372,-2.19372 0.86665,1.36804 c 0.47666,0.75242 0.87354,1.78053 0.88197,2.2847 0.008,0.50417 0.27677,0.65521 0.59633,0.33564 0.31956,-0.31956 0.0601,-1.55446 -0.57669,-2.74422 l -1.15772,-2.16321 -1.34783,0.51722 -1.34784,0.51721 -1.59852,-2.43965 -1.59853,-2.43966 h -1.47694 -1.47695 v 1 c 0,0.55 -0.54,1 -1.2,1 h -1.2 l 1.2,-1.2 c 0.66,-0.66 1.2,-1.51598 1.2,-1.90217 0,-0.3862 -1.41715,-1.1962 -3.14922,-1.8 -1.73208,-0.60381 -3.48208,-1.09783 -3.88889,-1.09783 -0.40682,0 -0.67717,0.76448 -0.60078,1.69883 l 0.13889,1.69883 -2.42593,0.0234 -2.42592,0.0234 -0.46053,-1.38158 -0.46052,-1.38157 1.60442,0.61568 1.60443,0.61567 0.59104,-0.95632 0.59104,-0.95633 h -2.97723 c -1.63747,0 -3.68903,0.27315 -4.55901,0.60699 l -1.581791,0.60699 -0.03041,2.14301 -0.03041,2.14301 -1.060151,-1.82303 -1.060152,-1.82303 -1.999564,1.80958 c -1.09976,0.99527 -2.707768,1.81563 -3.573352,1.82303 l -1.573788,0.0135 -0.261088,1.275 -0.261087,1.275 0.508333,-1.025 c 0.279583,-0.56375 0.995833,-1.025 1.591667,-1.025 H 91.9854 l -0.651123,0.65113 -0.651123,0.65112 1.538882,1.12526 1.538882,1.12525 -0.619008,1.61311 -0.619009,1.61312 -2.185417,-0.40536 c -1.201979,-0.22295 0.964583,0.76513 4.814583,2.19573 3.85,1.4306 8.208073,2.59368 9.684613,2.58461 l 2.6846,-0.0165 1.16588,1.40479 1.16587,1.4048 3.39952,0.63775 3.39952,0.63775 v 1.38871 c 0,0.76379 -0.23945,1.38871 -0.53212,1.38871 -0.29267,0 -2.10369,-0.65664 -4.0245,-1.45921 l -3.49239,-1.45921 -1.52354,0.58464 -1.52354,0.58463 -1.20196,-1.61223 -1.20195,-1.61223 -7.425156,-2.51319 c -4.083833,-1.38226 -7.571333,-2.5132 -7.75,-2.5132 -0.178666,0 -0.324847,0.9 -0.324847,2 v 2 h 1.5 1.5 v 1 1 H 88.82526 86.998453 l 0.422925,2.88158 0.422926,2.88158 -1.096118,0.67744 c -0.602866,0.37259 -1.096119,1.18689 -1.096119,1.80955 v 1.13211 l 1.348296,-1.8439 1.348296,-1.84391 1.306212,0.80729 1.306213,0.80728 -0.713526,-1.15451 -0.713525,-1.15451 h 1.059017 c 0.582459,0 1.065161,0.3375 1.072671,0.75 0.0075,0.4125 0.303396,1.83287 0.657524,3.15637 l 0.643869,2.40638 -1.407524,-0.79194 c -0.774138,-0.43556 -0.156138,0.50657 1.373334,2.09363 l 2.780857,2.88556 1.034649,-1.5 1.03465,-1.5 -0.585189,2.0997 -0.585189,2.09969 3.269682,1.04822 c 1.798326,0.57652 3.580626,1.09416 3.960666,1.1503 0.38004,0.0562 1.01207,-0.41744 1.40451,-1.05242 z m 49.19764,-11.09549 c 0.0695,-0.6875 0.39587,-2.375 0.72515,-3.75 l 0.5987,-2.5 -4.14147,-2.5 c -2.2778,-1.375 -4.55412,-2.3875 -5.05848,-2.25 -0.50437,0.1375 -0.90299,-0.0875 -0.88582,-0.5 0.0172,-0.4125 1.13986,-2.55 2.49487,-4.75 1.35502,-2.2 2.46598,-3.48195 2.4688,-2.84877 l 0.005,1.15122 3.72933,2.20036 c 2.05113,1.2102 4.50499,2.34974 5.45302,2.53231 l 1.72369,0.33195 2.09056,-5.58753 c 1.14981,-3.07314 2.57015,-7.82377 3.15631,-10.55695 l 1.06575,-4.96941 -1.35933,-0.90647 -1.35933,-0.90647 -5.25136,0.27988 -5.25137,0.27988 0.001,-2.75 c 7.5e-4,-1.5125 0.11386,-3.03442 0.25136,-3.38206 0.1375,-0.34763 2.95,-0.68513 6.25,-0.75 l 6,-0.11794 -0.23599,-5.4529 -0.23599,-5.4529 -2.0644,-6.20351 -2.06439,-6.20351 -2.28125,0.25041 c -1.25468,0.13773 -3.707,1.09264 -5.44961,2.12202 -1.7426,1.02939 -3.17838,2.33708 -3.19061,2.906 l -0.0222,1.03439 -1.83624,-2.3881 -1.83623,-2.3881 -6.11132,5.61831 -6.11131,5.61831 -1.47888,-0.5675 -1.47887,-0.56749 -9.30134,5.56797 c -5.11574,3.06238 -9.94272,5.942 -10.72663,6.39915 l -1.4253,0.83118 0.72225,1.16862 0.72225,1.16861 16.20304,5.12848 c 8.91168,2.82067 18.11386,5.86695 20.4493,6.76952 2.33544,0.90257 4.24794,1.96729 4.25,2.36604 l 0.004,0.725 -3.25,-0.60258 c -1.7875,-0.33142 -4.6,-1.21141 -6.25,-1.95553 -1.65,-0.74413 -9.4125,-3.6026 -17.25,-6.35216 l -14.25,-4.9992 v 0.86105 c 0,0.47357 1.53605,2.03265 3.41344,3.4646 1.87739,1.43196 4.01489,3.17876 4.75,3.88177 0.73511,0.70302 7.86156,7.16335 15.83656,14.35629 7.975,7.19294 15.1176,13.82455 15.87244,14.73692 0.75485,0.91236 1.46735,1.65884 1.58334,1.65884 0.11599,0 0.26779,-0.5625 0.33735,-1.25 z M 38.707384,125.5203 c 0.562318,-3.46785 2.406077,-10.12917 4.097244,-14.80294 1.691166,-4.67376 3.228028,-8.34457 3.415248,-8.15735 0.18722,0.18722 -1.025953,4.30445 -2.695939,9.14941 l -3.036339,8.80902 -0.543186,5.26297 -0.543187,5.26298 2.499941,0.47789 2.499941,0.47789 0.595098,-5.69359 0.595098,-5.69359 2.612346,-7.24203 2.612346,-7.24203 -2.03596,-2.16718 -2.035961,-2.16718 0.814809,-1.31839 0.814809,-1.31839 0.601309,1.56699 0.60131,1.56698 1.701899,-0.65308 1.701899,-0.65308 -0.856004,1.41994 -0.856003,1.41994 1.611236,-1.30545 1.611236,-1.30545 1.050314,1.80545 1.050313,1.80545 0.03041,-1.25 c 0.01673,-0.6875 0.454571,-1.25 0.972991,-1.25 h 0.942583 l -0.353068,1.83334 -0.353068,1.83333 1.160485,0.0743 c 0.638267,0.0409 2.735486,0.66931 4.660486,1.39655 1.925,0.72725 3.648959,1.40527 3.83102,1.50673 0.182061,0.10146 -0.209781,1.19497 -0.870761,2.43002 l -1.201782,2.24555 -0.981365,-1.7536 -0.981364,-1.7536 -3.441893,-1.43812 -3.441892,-1.43811 -1.12592,0.69585 -1.125921,0.69586 0.658485,-1.71598 0.658484,-1.71598 -0.988546,0.61095 -0.988545,0.61096 -0.01531,-1.30902 -0.01531,-1.30902 -0.969374,1.5 c -0.533156,0.825 -0.969375,1.95 -0.969375,2.5 v 1 l 0.969375,-1.5 c 0.533156,-0.825 0.976265,-1.14804 0.984687,-0.71788 0.0084,0.43017 -0.665594,2.41176 -1.497814,4.40354 -0.832219,1.99178 -1.37471,3.75984 -1.205535,3.92901 0.169175,0.16918 11.47984,4.15009 25.13481,8.84646 13.654971,4.69638 25.334966,8.52158 25.955536,8.50045 l 1.12832,-0.0384 -4.671258,-4.21158 c -2.569189,-2.31637 -7.49853,-6.68658 -10.954091,-9.71158 -3.455561,-3.025 -8.440997,-7.47408 -11.078746,-9.88684 -2.63775,-2.41276 -4.795909,-4.79816 -4.795909,-5.30089 v -0.91405 l 3.74943,2.80089 c 2.062186,1.54049 6.449686,5.52914 9.75,8.86367 3.300313,3.33453 9.057744,8.67736 12.79429,11.87295 3.736554,3.19559 6.979394,5.62449 7.206324,5.39756 0.22694,-0.22693 -0.64357,-3.83581 -1.93446,-8.01974 -1.29088,-4.18393 -2.9154,-10.78739 -3.610045,-14.67436 l -1.262982,-7.06721 -1.003802,0.62038 -1.003802,0.62039 0.570541,-2.18176 0.57054,-2.181747 -2.536662,-9.724621 C 93.546226,83.201561 92.035404,78.423018 91.584008,77.931117 l -0.820719,-0.894365 -3.250388,1.346354 c -1.787713,0.740495 -4.287749,1.2605 -5.555635,1.155567 l -2.305247,-0.190788 v 0.988798 c 0,0.54384 0.5625,1.012913 1.25,1.042386 l 1.25,0.05359 2.541269,5.354106 2.541269,5.354106 -2.695561,1.592307 c -1.482559,0.875769 -2.96363,1.592307 -3.291269,1.592307 -0.32764,0 -0.595708,-1.084998 -0.595708,-2.411106 v -2.411107 l -3.066423,-2.580225 -3.066424,-2.580225 -2.806792,1.451449 -2.806793,1.451449 -0.710117,-0.710118 -0.710118,-0.710117 0.333333,1.5 0.333334,1.5 -1.25,-0.25 -1.25,-0.25 v 1.312909 c 0,0.7221 -1.2687,2.5284 -2.819333,4.014 l -2.819332,2.701092 -0.73352,-0.73352 -0.733521,-0.73352 0.621027,1.618369 0.621026,1.618369 -1.318174,0.82303 c -0.724995,0.452666 -1.880673,0.908366 -2.568173,1.012666 l -1.25,0.18963 v -0.97383 c 0,-0.535599 3.106766,-4.149059 6.903924,-8.029904 l 6.903925,-7.056081 1.120852,0.692725 1.120852,0.692724 -0.274777,-1.324329 -0.274776,-1.32433 1.668571,0.125317 1.66857,0.125318 -0.361153,-1.875318 -0.361153,-1.875317 h 1.014011 1.014011 l -1.557573,-1.557573 -1.557574,-1.557574 -4.263855,2.969685 c -2.34512,1.633326 -6.304847,5.146734 -8.799393,7.807573 -2.494545,2.660839 -5.37679,5.850389 -6.404987,7.087889 l -1.86945,2.25 1.904987,2.232767 1.904988,2.232768 -1.75,-1.35522 -1.75,-1.355205 -0.03041,1.372445 -0.03041,1.37244 -1.049517,-1.80403 -1.049518,-1.804023 4.22049,-5.47054 c 2.32127,-3.008796 6.294737,-7.176198 8.829927,-9.260892 2.53519,-2.084694 6.106606,-4.828968 7.936481,-6.098386 l 3.327045,-2.308034 1.172955,1.172955 1.172955,1.172955 v 2.95 2.95 h 1 1 v -3 -3 h -0.75 c -0.4125,0 -0.75,-0.649483 -0.75,-1.443296 V 74.43889 l 2.25,-1.58529 c 1.2375,-0.87191 5.85,-2.744166 10.25,-4.16057 l 8,-2.57528 10.000003,-0.825859 10,-0.825859 -10.5,0.374572 -10.500003,0.374572 -6.116134,1.922949 c -3.363874,1.057621 -8.958546,3.367357 -12.432604,5.132747 -3.474059,1.765389 -8.162097,4.479623 -10.417862,6.03163 -2.255764,1.552007 -7.120569,6.022319 -10.810676,9.934027 l -6.709286,7.112197 -3.647125,7.238374 c -2.005919,3.98111 -4.471206,10.11741 -5.478416,13.63623 l -1.831291,6.39785 -0.458192,7.60215 c -0.252006,4.18118 -0.257324,6.25215 -0.01182,4.60215 0.245506,-1.65 0.906452,-5.83733 1.46877,-9.30518 z m 77.264456,2.99199 c 2.2991,-1.54726 6.65518,-4.0017 9.68018,-5.4543 l 5.5,-2.64111 1,-2.2957 1,-2.2957 4.5,-1.50384 c 2.475,-0.82711 5.94015,-2.28961 7.70034,-3.25 1.76019,-0.96039 3.86122,-1.74616 4.66896,-1.74616 0.80774,0 2.83048,-0.7816 4.49498,-1.73689 l 3.02635,-1.73689 0.44249,-1.69209 0.4425,-1.6921 -5.13781,-6.016596 c -2.8258,-3.30913 -6.3796,-6.977121 -7.89734,-8.151091 l -2.75953,-2.134491 0.56147,-0.908471 0.56146,-0.90847 -1.56327,0.599886 -1.56328,0.599886 0.61833,-1.611341 c 0.34008,-0.886237 0.90768,-1.597029 1.26134,-1.579537 0.35365,0.01749 1.47557,0.662551 2.49315,1.433465 l 1.85013,1.401662 -0.65207,1.055081 -0.65208,1.05508 1.72555,-0.662154 1.72555,-0.662155 -0.68495,1.78495 -0.68495,1.784949 1.4533,-0.557685 1.4533,-0.557684 5.55804,6.003344 c 3.05692,3.301839 5.55804,6.482792 5.55804,7.068792 v 1.06544 l -1.66372,-1.37244 -1.66372,-1.372448 1.20996,2.270668 c 0.66548,1.24887 1.02047,2.59887 0.78885,3 -0.23161,0.40113 -0.0733,1.62933 0.35184,2.72933 l 0.77294,2 -0.0507,-3.26408 c -0.0279,-1.79525 0.1305,-3.42685 0.35192,-3.62578 0.22142,-0.19892 1.52758,-0.70239 2.90258,-1.11881 l 2.5,-0.75713 -1.87191,2.09635 -1.8719,2.09634 2.52554,-1.19186 2.52555,-1.19187 -4.09114,-5.832317 c -2.25012,-3.207773 -6.93068,-8.488574 -10.40124,-11.735112 -3.47056,-3.246539 -7.21119,-6.38504 -8.31251,-6.974447 l -2.00239,-1.07165 v 0.963756 c 0,0.530065 -0.57839,1.558398 -1.2853,2.285183 -0.70692,0.726786 -2.80983,3.796429 -4.67314,6.821429 l -3.38784,5.5 0.10711,1.698476 0.10711,1.698476 -2.54739,-1.160669 -2.54739,-1.160669 1.16416,-0.388053 c 0.64028,-0.213429 2.25967,-2.123466 3.59864,-4.244527 l 2.43449,-3.856474 -0.5534,-1.44213 -0.5534,-1.442129 1.22268,-0.755659 1.22269,-0.755659 -0.84647,1.404508 -0.84647,1.404509 1.82469,-1.482599 1.82468,-1.482599 -2.38272,-0.582054 -2.38273,-0.582053 -0.26891,0.62137 c -0.1479,0.341753 -3.9729,-0.632069 -8.5,-2.16405 -4.5271,-1.531981 -9.14346,-2.795004 -10.25858,-2.806718 -1.11513,-0.01171 -3.02763,-0.721814 -4.25,-1.578001 l -2.22251,-1.556704 v 0.989316 c 0,0.544124 0.82223,1.250283 1.82718,1.569241 l 1.82718,0.579924 -1.1229,6.237464 -1.1229,6.237463 -4.45428,0.313132 -4.45428,0.313132 1.25,-1.263132 1.25,-1.263132 V 82.19691 78.468339 l -1.57143,-1.571429 c -0.86429,-0.864285 -2.32679,-1.565284 -3.25,-1.557773 -0.923214,0.0075 -2.727349,0.294481 -4.00919,0.637713 l -2.330618,0.624059 0.632586,2.112286 c 0.347923,1.161758 1.923571,7.062287 3.50144,13.112287 1.57787,6.05 3.976462,14.824998 5.330202,19.499998 1.35374,4.675 2.79025,10.525 3.19224,13 0.402,2.475 1.18512,5.0625 1.74028,5.75 0.55516,0.6875 1.6607,1.25 2.45676,1.25 0.79606,0 3.32846,-1.26594 5.62755,-2.81319 z m -16.409297,-82.48384 -1.164356,-2.555485 0.678128,-2.701876 0.678128,-2.701877 2.871867,-2.871865 2.87186,-2.871865 h 3.94207 3.94206 l 2.4995,1.966106 c 1.37473,1.081359 3.07837,3.363624 3.78588,5.071702 l 1.28638,3.105595 -1.63484,3.428299 -1.63484,3.428298 h 0.79526 c 0.43739,0 1.77972,-0.91717 2.98296,-2.038156 1.20324,-1.120985 3.08809,-3.803058 4.18856,-5.960161 l 2.00086,-3.922007 v -4.579676 -4.579676 l -2.01976,-3.959047 -2.01975,-3.959046 -3.73025,-2.409677 c -2.05163,-1.325321 -5.15509,-2.703308 -6.89656,-3.062191 l -3.16632,-0.652516 -4.29743,1.157177 -4.29743,1.157176 -3.690148,3.690153 -3.690153,3.690152 -1.167008,4.333937 -1.167008,4.333937 1.134496,4.72911 1.134496,4.72911 3.051627,3.702153 c 1.678395,2.036183 3.241628,3.51215 3.473848,3.279926 0.23223,-0.232224 -0.10173,-1.572194 -0.742127,-2.97771 z"
       id="path55" /></g></svg>
