<?xml version="1.0" encoding="UTF-8" standalone="no"?>
<svg
   id="wave"
   viewBox="0 0 490 1440"
   version="1.1"
   width="490"
   height="1440"
   xmlns="http://www.w3.org/2000/svg"
   xmlns:svg="http://www.w3.org/2000/svg">
  <defs
     id="defs2">
    <linearGradient
       id="sw-gradient-0"
       x1="0"
       x2="0"
       y1="1614.504"
       y2="116.10019"
       gradientTransform="matrix(0,-3.2949062,0.30349878,0,0.02682173,4937.0392)"
       gradientUnits="userSpaceOnUse">
      <stop
         stop-color="rgba(0, 0, 0, 1)"
         offset="0%"
         id="stop1" />
      <stop
         stop-color="rgba(0, 0, 0, 1)"
         offset="100%"
         id="stop2" />
    </linearGradient>
  </defs>
  <path
     style="opacity:1;fill:url(#sw-gradient-0)"
     fill="url(#sw-gradient-0)"
     d="m 245.02682,4937.0392 -40.8,-34.3 c -41.2,-34.3 -122.199998,-102.7 -130.699998,-171.7 -8.5,-68.3 57.499998,-137 122.499998,-205 65,-69 131,-138 98,-206 -33,-68.7 -163,-137 -163.3,-206 0.3,-68.4 130.3,-137 163.3,-206 33,-68.1 -33,-137 -57.2,-205 -24.8,-68.9 -7.8,-137 -40.8,-206 -33,-68.6 -113.999998,-137 -106.199998,-206 8.2,-68.3 106.199998,-137 122.499998,-205 16.7,-69 -49.3,-138 -73.5,-206 -24.8,-68.7 -7.8,-137 32.7,-206 40.5,-68.4 106.5,-137 155.2,-206 49.3,-68.1 81.3,-137 57.1,-205 -24.8,-68.9 -105.8,-137 -163.3,-206 -57.5,-68.6 -89.5,-137 -89.8,-206 0.3,-68.3 32.3,-137 65.3,-205 33,-69 65,-138 106.2,-206 40.8,-68.7 89.8,-137 49,-206 -41.2,-68.4 -171.2,-137 -245,-206 C 33.026822,959.93921 16.026822,891.03921 57.226822,823.03921 c 40.8,-68.9 138.799998,-137 179.599998,-206 41.2,-68.6 24.2,-137 8.2,-206 -16,-68.3 -33,-137 -32.7,-205 -0.3,-69 16.7,-138.000002 24.5,-172.000002 l 8.2,-34.09999959 h 245 V 34.139208 c 0,34.3 0,102.900002 0,171.900002 0,68.1 0,137 0,205 0,68.9 0,137 0,206 0,68.6 0,137 0,206 0,68.3 0,137 0,204.99999 0,69 0,138 0,206 0,68.7 0,137 0,206 0,68.4 0,137 0,206 0,68.1 0,137 0,205 0,68.9 0,137 0,206 0,68.6 0,137 0,206 0,68.3 0,137 0,205 0,69 0,138 0,206 0,68.7 0,137 0,206 0,68.4 0,137 0,206 0,68.1 0,137 0,205 0,68.9 0,137 0,206 0,68.6 0,137 0,206 0,68.3 0,137 0,205 0,69 0,138 0,206 0,68.7 0,137 0,206 0,68.4 0,137 0,206 0,68.1 0,137 0,205 0,68.9 0,137 0,172 v 34 z"
     id="path2" />
  <defs
     id="defs4">
    <linearGradient
       id="sw-gradient-1"
       x1="0"
       x2="0"
       y1="1565.1752"
       y2="19.546907"
       gradientTransform="matrix(0,-3.1942351,0.313064,0,0.02682173,4937.0392)"
       gradientUnits="userSpaceOnUse">
      <stop
         stop-color="rgba(10.0, 10.0, 10.0, 1)"
         offset="0%"
         id="stop3" />
      <stop
         stop-color="rgba(15.0, 15.0, 15.0, 1)"
         offset="100%"
         id="stop4" />
    </linearGradient>
  </defs>
  <path
     style="opacity:0.9;fill:url(#sw-gradient-1)"
     fill="url(#sw-gradient-1)"
     d="m 196.02682,4937.0392 32.7,-34.3 c 32.3,-34.3 98.3,-102.7 89.8,-171.7 -8.5,-68.3 -89.5,-137 -114.3,-205 -24.2,-69 7.8,-138 49,-206 40.8,-68.7 89.8,-137 89.8,-206 0,-68.4 -49,-137 -114.3,-206 -65.7,-68.1 -146.699998,-137 -187.899998,-205 -40.80000027,-68.9 -40.80000027,-137 -24.5,-206 16.7,-68.6 48.7,-137 65.4,-206 16.3,-68.3 16.3,-137 73.499998,-205 56.8,-69 171.8,-138 212.3,-206 40.5,-68.7 8.5,-137 -40.8,-206 -48.7,-68.4 -114.7,-137 -147,-206 -32.7,-68.1 -32.7,-137 -8.2,-205 24.5,-68.9 73.5,-137 49,-206 -24.5,-68.6 -122.499998,-137 -171.499998,-206 -49.00000027,-68.3 -49.00000027,-137 -8.2,-205 41.2,-69 122.199998,-138 122.499998,-206 -0.3,-68.7 -81.299998,-137 -97.999998,-206 -16.3,-68.4 32.7,-137 32.7,-206 0,-68.09999 -49,-136.99999 -32.7,-204.99999 16.7,-68.9 97.699998,-137 122.499998,-206 24.2,-68.6 -7.8,-137 -32.6,-206 -24.2,-68.3 -41.2,-137 0,-205 40.8,-69 138.8,-138.000002 187.8,-172.000002 l 49,-34.09999959 h 98 V 34.139208 c 0,34.3 0,102.900002 0,171.900002 0,68.1 0,137 0,205 0,68.9 0,137 0,206 0,68.6 0,137 0,206 0,68.3 0,137 0,204.99999 0,69 0,138 0,206 0,68.7 0,137 0,206 0,68.4 0,137 0,206 0,68.1 0,137 0,205 0,68.9 0,137 0,206 0,68.6 0,137 0,206 0,68.3 0,137 0,205 0,69 0,138 0,206 0,68.7 0,137 0,206 0,68.4 0,137 0,206 0,68.1 0,137 0,205 0,68.9 0,137 0,206 0,68.6 0,137 0,206 0,68.3 0,137 0,205 0,69 0,138 0,206 0,68.7 0,137 0,206 0,68.4 0,137 0,206 0,68.1 0,137 0,205 0,68.9 0,137 0,172 v 34 z"
     id="path4" />
  <defs
     id="defs6">
    <linearGradient
       id="sw-gradient-2"
       x1="0"
       x2="0"
       y1="1592.2524"
       y2="72.908768"
       gradientTransform="matrix(0,-3.249495,0.30774013,0,0.02682173,4937.0392)"
       gradientUnits="userSpaceOnUse">
      <stop
         stop-color="rgba(20.0, 20.0, 20.0, 1)"
         offset="0%"
         id="stop5" />
      <stop
         stop-color="rgba(30.0, 30.0, 30.0, 1)"
         offset="100%"
         id="stop6" />
    </linearGradient>
  </defs>
  <path
     style="opacity:0.8;fill:url(#sw-gradient-2)"
     fill="url(#sw-gradient-2)"
     d="m 392.02682,4937.0392 -24.5,-34.3 c -24.5,-34.3 -73.5,-102.7 -81.7,-171.7 -7.8,-68.3 24.2,-137 32.7,-205 8.5,-69 -8.5,-138 -8.2,-206 -0.3,-68.7 16.7,-137 -24.5,-206 -40.8,-68.4 -138.8,-137 -163.3,-206 -24.499998,-68.1 24.5,-137 89.8,-205 65.7,-68.9 146.7,-137 114.4,-206 -32.7,-68.6 -179.7,-137 -244.999998,-206 -65.7,-68.3 -48.7,-137 8.1,-205 57.199998,-69 155.199998,-138 163.399998,-206 7.8,-68.7 -73.2,-137 -106.2,-206 -33,-68.4 -16,-137 -24.5,-206 -8.5,-68.1 -40.499998,-137 -16.3,-205 24.8,-68.9 105.8,-137 155.1,-206 48.7,-68.6 65.7,-137 24.5,-206 -40.8,-68.3 -138.8,-137 -171.5,-205 -32.299998,-69 -0.3,-138 65.4,-206 65.3,-68.7 163.3,-137 196,-206 32.3,-68.4 0.3,-137 -65.4,-206 -65.3,-68.09999 -163.3,-136.99999 -220.499998,-204.99999 -56.8,-68.9 -73.8,-137 -65.3,-206 8.5,-68.6 40.5,-137 81.699998,-206 40.8,-68.3 89.8,-137 98,-205 7.8,-69 -24.2,-138.000002 -40.9,-172.000002 l -16.3,-34.09999959 h 343 V 34.139208 c 0,34.3 0,102.900002 0,171.900002 0,68.1 0,137 0,205 0,68.9 0,137 0,206 0,68.6 0,137 0,206 0,68.3 0,137 0,204.99999 0,69 0,138 0,206 0,68.7 0,137 0,206 0,68.4 0,137 0,206 0,68.1 0,137 0,205 0,68.9 0,137 0,206 0,68.6 0,137 0,206 0,68.3 0,137 0,205 0,69 0,138 0,206 0,68.7 0,137 0,206 0,68.4 0,137 0,206 0,68.1 0,137 0,205 0,68.9 0,137 0,206 0,68.6 0,137 0,206 0,68.3 0,137 0,205 0,69 0,138 0,206 0,68.7 0,137 0,206 0,68.4 0,137 0,206 0,68.1 0,137 0,205 0,68.9 0,137 0,172 v 34 z"
     id="path6" />
</svg>
